<?xml version="1.0" encoding="UTF-8"?>
<svg id="Graphic_Elements" data-name="Graphic Elements" xmlns="http://www.w3.org/2000/svg" viewBox="0 0 780.86 128.69">
  <defs>
    <style>
      .cls-1 {
        fill: #000;
        stroke-width: 0px;
      }
    </style>
  </defs>
  <path class="cls-1" d="M689.78,75.87c2.36-.27,2.42-.38,1.34-1.92-.24-.34-.64-.67-.22-1.09.34-.35.8-.23,1.19-.07,1.25.52,2.33,1.43,3.79,1.51.99.06,1.91.28,2.41-.89.07-.16.31-.25.48-.37.93,1.28,1.82.5,2.73-.04.13-.08.54.02.58.12.64,1.63,2.06,1.01,3.22,1.17.51.07,1.13.15,1.2.82.06.56-.56.51-.85.75-1.88,1.56-3.94.38-5.91.45-.94.03-1.89-.15-2.84-.2-.42-.02-.85-.01-1.08.47-.44.97-.81.59-1.12-.09-.17-.37-.4-.63-.81-.66-.39-.03-.78.01-.91.45-.16.53.21.75.63.93.49.21,1.27.15,1.17,1-.04.36-.44.45-.76.44-.71-.02-1.72.28-1.92-.63-.24-1.13-.95-1.31-1.81-1.37-1.26-.08-2.11-1.19-3.39-1.23-1.15-.03-2.29-.42-3.42.17-.34.18-.74.07-1.07-.12-.58-.34-.8-.4-1.42.28-.84.91-2.31.29-3.41,0-.62-.17-.95-.13-1.53.08-1.97.72-3.96-.04-5.95-.13-2.13-.1-3.7-1.84-5.89-1.82-1.71.02-3.45-.39-5.02.62-.23.15-.63.33-.71.14-.67-1.45-2.42-.77-3.59-2.28.29,2.02-.6,2.08-1.76,1.92-5.29-.75-10.63-.71-15.94-.87-5.08-.15-10.15-.8-15.23-.7-2.6.05-5.17-.41-7.72-.26-4.65.27-9.26-.62-13.89-.18-1.14.11-2.32-.26-3.47-.21-5.19.2-10.35-.39-15.54-.4-1.27,0-2.53.1-3.79.22-1.92.18-3.84.64-5.8-.07-1.03-.37-2.24-.26-3.3.06-2.3.68-4.59.7-6.9.21-3.7-.77-7.33.33-11.01.34-2.48,0-4.96-.11-7.43-.2-1.71-.06-3.37.03-5.04.28-1.34.2-2.63-.02-3.95-.12-4.1-.32-8.22.1-12.33-.52-1.16-.18-2.47.4-3.67.78-1.2.38-2.4.42-3.6.24-2.63-.38-5.23-.18-7.86.31,1.24.27,2.4.84,3.7.8,2.37-.08,4.82.19,7.08-.34,2.23-.52,4.23.5,6.36.21,1.05-.14,2.07-.11,3.04-.68.87-.51,1.88-.41,2.73.1.82.49,1.68.66,2.58.57,4.58-.45,9.16.09,13.75-.12,3.7-.17,7.48-.35,11.21.12.56.07,1.32-.02,1.26.83-.06.85-.73,1.06-1.49,1.07-4.68.08-9.38-.09-14.04.14-3.85.18-7.71,0-11.53.42-1.6.18-3.03.59-4.43-.62-.46-.4-1.23,0-1.85.12-3.09.6-6.18,1.05-9.3.18-1.07-.3-2.11.08-3.13.26-2.25.4-4.55.27-6.78.56-4.08.53-8.07-.03-12.11-.18-2.61-.1-5.25.31-7.86.64-1.13.14-2.26-.54-3.44.1.64.64,2.3-.28,2.03,1.44.41.04.83.11,1.24.12,3.76.12,7.5-.16,11.29.19,1.87.17,4.03.63,6.01-.08.1-.03.23-.09.31-.05,1.96.85,3.93-.28,5.93.07,1.19.21,2.53.04,3.71-.27,1.12-.29,2.17-.4,3.27-.16,2.65.59,5.25.04,7.88-.17,2.17-.17,4.38.35,6.57.27,3.93-.14,7.84.65,11.75.21,4.72-.53,9.4-.86,14.11.1,1.55.31,3.14-.3,4.71-.5,1.54-.2,3.03.05,4.54.13,2.37.12,4.8.79,7.18-.07,1.04-.38,2.14-.41,3.1.07,1.41.7,2.79.79,4.25.32,2.64-.84,5.16.8,7.8.36.92-.15,1.9.11,2.78-.41.2-.12.6-.18.74-.07,1.31,1.04,2.86.41,4.28.66,1.02.18,2.07.16,2.9-.8.49-.56,1.4-.59,1.87-.03,1.18,1.36,2.7,1.27,4.23,1.24,5.75-.13,11.48.36,17.22.43,2.3.03,4.54.07,6.81.46.77.13,1.62-.23,2.45-.37-.13-.78-1.32-.33-1.09-1.21.09-.38.43-.6.81-.7.69-.18.9.38,1.2.81.91,1.3,1.99,1.69,3.72,1.62,3.47-.13,6.95.36,10.44.53,5.55.26,11.11.47,16.66.7.32.01.64.04.94.11.57.14,1.23.33,1.16,1.07-.07.81-.8.66-1.36.73-4.29.51-8.52-.62-12.78-.44-4.33.18-8.58-.77-12.93-.66-3.08.08-6.19-.91-9.25-.75-2.43.12-4.81-1-7.27,0-1.59.64-3.35.15-5.02-.09-2-.29-4.01-.24-6.01-.31-4.42-.16-8.86-.24-13.28-.19-3.23.04-6.43-.4-9.62-.31-2.67.07-5.36.07-8.03.18-.31.01-.84.04-.81.33.17,1.62-1.14,1.23-1.92,1.4-2.63.58-5.25.03-7.88-.22-.63-.06-1.26-.14-1.89-.22-.45-.06-1.12.06-1.08-.61.04-.72.73-.67,1.24-.62,1,.1,1.99.27,2.98.41.25.04.51.17.91-.18-1.6-.58-3.23-1.01-4.71-.75-2.3.41-4.55.66-6.87.47-.71-.06-1.5-.18-1.67.93-.1.66-.77.64-1.3.64-2.47.02-4.93.29-7.41.12-1.23-.09-2.49.41-3.74.5-.7.05-1.87.41-1.91-.72-.03-.94,1.04-.8,1.77-.85.15-.01.3-.07.45-.3-4.54.23-9.06-.16-13.72-.16.33.41,1.15.54.84,1.25-.3.69-.95.76-1.6.81-3.73.27-7.46.33-11.19.33-.99,0-2-.16-2.98.37,1.07.45,2.25.13,3.37.41,1.32.33,2.83.2,4.21,0,4.03-.6,8.03-.81,12.09-.31,3.23.4,6.53.71,9.73.08,2.77-.54,5.05.37,7.38,1.5.47.23.99.64,1.46.22.64-.57-.23-.73-.41-1.08-.18-.35-.11-.63.25-.77.42-.17.93-.21,1.14.22,1.19,2.4,3.46,2.33,5.61,2.51.81.06,1.56-.02,1.97-.95.35-.81,1.13-.62,1.81-.54,1.4.18,2.79.58,4.21.04.45-.17.95-.02,1.28.4.22.28.23.59.03.88-.33.47-.81.41-1.29.35-.46-.06-.92-.27-1.47.04.49.5,1.1.33,1.63.43.38.07.77.17.81.62.05.51-.38.56-.74.63-.36.07-.8.25-1.09.13-1.69-.72-3.51.65-5.18-.37-.25-.15-.75-.05-1.07.1-.44.2-1.21.27-1.11.91.08.51.79.35,1.23.48,2.48.76,5.06.44,7.46.09,2.48-.36,4.76.16,7.12.37.05,0,.1.03.16.03,1.58-.06,3-.77,4.76.2,1.32.73,3.33.07,4.98.35,2.47.41,4.99.39,7.39.2,3.53-.28,6.98.56,10.51.16,2.47-.28,5.03.15,7.55.34.6.04,1.14.08,1.71-.16-.07-.08-.11-.18-.18-.2-.7-.2-1.97.3-1.99-.71-.02-1.07,1.27-.49,1.95-.7,1.34-.41,2.72.12,4.09.11,1.06,0,1.07-.59,1.36-1.24.42-.92-.4-.74-.75-.94-.43-.24-.91-.43-.74-1.04.16-.57.68-.67,1.16-.59,2.77.44,5.59.41,8.36.68,2.34.23,4.68.05,7.01.18,4.45.24,8.86.8,13.31,1.05.76.04,1.49.3,1.6,1.24.07.59.44.78.93.92.59.17,1.25.48.79,1.19-.39.59-1.05,1.11-1.88.54-.26-.18-.64-.41-.66-.65-.22-2.09-1.9-1.66-3.17-1.86-.82-.13-1.67-.1-2.54,0,1.51.26,2.91.71,4.09,1.7.27.23.77.39.58.82-.23.51-.91.65-1.22.36-.87-.83-1.7-.32-2.61-.23-2.21.22-4.44.05-6.64-.28-1.05-.16-1.13-1.16-1.48-1.88-.48-.98-1.01-1.48-1.76-.3-.44.68-1.04.6-1.67.63-2.11.1-4.23-.19-6.32.29-.41.09-.87.13-1.2.36-.85.59-1.53.57-2.19-.28-.31-.4-.83-.4-1.3-.49-.13.48.58.44.44.73-1.02,2.14,1.02,1.27,1.4,1.19,3.11-.69,6.08.05,9.13.43,1.78.22,3.7-.25,5.59-.02,1.57.19,3.16.22,4.74.34.6.05,1.46-.09,1.45.81-.02.86-.81.55-1.36.6-4.24.34-8.43-.23-12.64-.46-2.55-.14-5.14-.62-7.73-.05-.96.21-2.01.13-3.01.07-9.23-.57-18.48-.14-27.71-.36-2.27-.05-4.52-.38-6.79-.43-1.89-.04-3.79.11-5.68.21-4.04.21-8.08.33-12.13.04-.82-.06-1.66.14-2.74.25.59.59,1.05.38,1.46.28.68-.16,1.38-.31,2.01.05.71.41,1.35.27,2.11.11,1.74-.36,3.38.68,5.13.6.31-.01.57.31.54.68-.04.52-.43.72-.88.74-1.16.03-2.34.14-3.49-.01-2.22-.3-4.43-.27-6.65-.2-1.76.06-3.47-.3-5.21-.37-.5-.02-1.24-.04-1.1-.79.14-.75.82-.89,1.51-.73.2.04.37.19.55.3.22.14.42.39.7.19.11-.07.2-.27.18-.4-.05-.42-.43-.46-.73-.44-1.58.08-3.14-.39-4.74-.14-2.41.37-4.84.13-7.26.12-.33,0-.73-.25-1.01.16.16.49.47.5.88.33.39-.17.77-.17.78.38.01.46-.2.94-.7.88-.98-.12-2.12.08-2.85-.71-.75-.8-1.69-1.06-2.58-.94-1.84.25-3.69.11-5.59.26,1,.8,2.08.68,3.18.63.55-.03,1.36,0,1.32.77-.05.79-.82.68-1.39.59-1-.16-1.98-.2-3-.13-.77.05-1.73.12-1.43-1.21.09-.41-.23-.6-.56-.6-2.26,0-4.48-.69-7.11-.28,1,.57,1.81.66,2.61.8.38.07.76.16.8.62.05.53-.33.81-.76.85-.77.07-1.55.02-2.34.2,1.11.63,2.37.64,3.53.45,2.9-.47,5.81-.15,8.71-.2,3.06-.05,6.14.16,9.18.13,3.16-.03,6.33-.17,9.5-.13,5.06.06,10.12.28,15.17.2,1.89-.03,3.92.25,5.7-.85.4-.25.83-.07,1.21.11,1.04.48,2.17.71,3.25.51,2.19-.4,4.27.3,6.41.4.2,0,.46.04.6-.07,2.02-1.44,4.14-.69,6.19-.19,1.01.24,1.87-.16,2.82-.17,1.62-.01,3.25.4,4.88-.12.68-.22,1.9.45,1.52-1.18-.06-.26.38-.49.74-.42.47.09.88.38.64.87-.39.81.02.86.64.94,1.44.19,2.85.74,4.34.06.54-.24,1.03-.16.97-1.03-.04-.67.73-.66,1.24-.64,4.48.09,8.97.03,13.43.45.89.09,1.8.19,2.69.15.98-.04,1.8.03,1.97,1.33.78-1.19,4.43-1.9,5.29-1.07.9.87-.48,1-.64,1.52.07.11.1.24.18.28.56.32,1.71.12,1.59.97-.15.98-1.24.53-1.88.5-5.96-.29-11.93-.15-17.89.08-3.81.14-7.6-.45-11.38-.05-2.07.22-4.14.24-6.15-.07-3.61-.55-7.24.17-10.83-.49-1.12-.2-2.34-.17-3.46.04-2.99.56-5.96-.13-8.92-.06-12,.31-23.99.22-35.99.21-5.96,0-11.92-.28-17.89-.28-8.24.01-16.47.34-24.71.32-5.31-.01-10.62.19-15.93.42-3.09.13-6.2.03-9.3.17-6.38.29-12.77.48-19.16.65-6.54.18-13.09.27-19.63.43-6.96.17-13.93.26-20.88.6-3.83.19-7.67.32-11.5.54-.11,0-.22.03-.32,0-4.5-.89-9.04-.05-13.55-.07-5.68-.02-11.4-.05-17.1.22-2.96.14-6,.07-9,0-3.05-.07-6.11-.08-9.17.02-2.78.09-5.58-.03-8.37-.02-2.63,0-5.26-.01-7.89.08-.9.03-1.8.08-2.69.06-14.53-.44-29.06-.24-43.59-.27-4.38,0-8.75-.23-13.12-.24-4.9,0-9.8-.26-14.7-.12-6.52.18-13.04.07-19.57-.05-5.29-.1-10.59.48-15.87.34-5.75-.16-11.5.02-17.24-.03-6.38-.06-12.78-.13-19.17.14-6.84.28-13.69-.06-20.53,0-7.39.07-14.75-.63-22.13-.77-4.17-.08-8.32-.24-12.48-.46-2.69-.14-5.38-.54-8.05-.57-5.6-.05-11.12-1.05-16.69-1.06-6.29-.01-12.56-.44-18.83-.73-6.9-.32-13.81-.29-20.72-.75-4.82-.32-9.7-.13-14.56-.18-1.71-.02-3.4.31-4.45,1.51-.73.84-1.17,2.12-1.65,3.25-.48,1.13-2.18,2.31-3.48,2.1-1.22-.19-1.51-1.2-1.83-2.29-.34-1.16-.76-2.05.4-3.09.62-.55-.02-1.27-.81-1.44-1.46-.31-2.94-.41-4.42-.26-3.31.33-6.62-.04-9.93-.05-5.16,0-10.2.41-14.78,3.12-1.4.83-2.88,1.41-4.41.21-.25-.19-.59-.36-.69-.62-.7-1.74-1.56-3.34-3.31-4.25-.04-.02-.06-.08-.09-.13-.72-1.08.63-1.56.68-2.37.04-.72-.99-1.7,1-1.77-1.11-.82-1.57-1.67-1.71-2.76-.13-1.06.08-1.89,1-2.47.84-.53.83-1.13.19-1.81-1.28-1.34-1.85-2.79-.87-4.58.25-.46.04-1.05-.16-1.54-.32-.83-.25-1.63,0-2.48.54-1.83-.81-3.22-2.68-2.81-1.47.32-2.66-.18-3.15-1.68-1.02-3.12-1.55-6.29.61-9.22.7-.94.77-1.61-.33-2.32-1.92-1.25-2.22-3.26-2.14-5.33.05-1.36-.15-2.56-.88-3.76-1.58-2.59-1.22-5.26.99-7.31.98-.91.94-1.32-.2-2.03-1.8-1.12-2.96-2.68-2.54-5.01.1-.55-.08-1.15-.16-1.72-.1-.71-.08-1.41.38-1.97,1.96-2.39,3.74-4.86,6.42-6.68,3.26-2.21,6.62-4.11,10.2-5.68,2.63-1.16,5.34-2,8.23-2.1.8-.03,1.48-.07,1.45-1.15,0-.35.42-.62.69-.38,1.74,1.54,3.7.58,5.55.48,2.83-.16,5.67-.59,8.45-1.04,4.05-.66,8.15-.87,12.2-1.54,3.71-.62,7.53-.83,11.34-.93,1.96-.05,3.95.09,5.96-.35,1.81-.4,3.77-.09,5.66-.07,6.38.07,12.76-.03,19.14,0,5.54.03,11.1-.07,16.64-.06,6.9.02,13.8.06,20.68.34,4.91.2,9.8.24,14.71,0,2.36-.12,4.75.33,7.1.15,4.06-.31,8.11-.04,12.17-.21,2.73-.11,5.48-.16,8.2-.32,3.24-.19,6.48.14,9.74-.35,1.81-.27,3.76-.28,5.66-.25,4.38.08,8.74-.27,13.1-.56,3.11-.21,6.22-.14,9.33-.38,8.62-.67,17.29-.66,25.91-1.51,1.36-.13,2.72.38,4.09-.06.42-.14.87.09.89.64.02.5-.31.83-.78.82-1.56-.03-3.01.7-4.64.42-2-.34-3.99.28-5.98.48-1.38.14-2.75.26-4.11,0-1.83-.34-3.55-.06-5.46.62,2.78.41,5.33-.19,7.88-.21,5.48-.03,10.98-.07,16.45-.4,4.55-.28,9.11-.21,13.67-.61,3.28-.29,6.69-.43,10.03.38,2.11.51,4.3-.14,6.45-.13,2.99.02,5.98-.14,8.97-.23.42-.01,1.05.09,1.22-.13,1.42-1.83,3.28-.83,4.96-.83,1.06,0,2.11.07,3.16-.1,1.11-.18,2.12,0,3.23.37,1.53.5,3.22.1,4.83-.03,2.46-.2,4.89-.55,7.4-.17,1.94.3,3.94-.22,5.94-.22,3.38,0,6.75-.16,10.13.05,2.81.17,5.58-.43,8.39-.46,2.11-.02,4.24-.21,6.27.6.14.06.31.11.46.09,4.98-.86,9.99-.62,15.01-.55,1.44.02,2.91-.17,4.37-.24,5.32-.27,10.64-.22,15.96-.38,3.67-.11,7.34-.52,11.04-.27,3.03.21,6.1-.07,9.15-.22,3.52-.18,7.05.01,10.58-.31,6.95-.64,13.94-.12,20.9-.58,5.72-.37,11.45-.51,17.19-.61,6.42-.12,12.84-.42,19.26-.45,7.42-.04,14.84-.3,22.26-.6,2.95-.12,5.9.05,8.84-.02,4.27-.09,8.53-.33,12.8-.51,4.74-.2,9.49-.08,14.24-.09,5.81-.02,11.63.13,17.43-.1,3.78-.15,7.57-.23,11.35-.49,1.96-.14,3.92-.04,5.79.65.54.2,1.22.42,1.09,1.15-.14.81-.87.67-1.42.55-2.51-.57-4.9.56-7.35.51-2.36-.04-4.73.21-7.07-.25-1.42-.28-2.81-.18-4.24,0-2.7.36-5.4.79-8.14.06-1.21-.33-2.41.45-3.71.42-3.43-.08-6.86.83-10.32-.06-.88-.23-1.95.27-2.93.45-2.77.53-5.53-.14-8.3-.03-3.06.12-6.11.6-9.15.63-3.72.04-7.47.78-11.18-.19-.3-.08-.64-.18-.92-.11-2.45.66-4.92.72-7.42.43-.47-.05-.98-.13-1.42,0-1.82.51-3.65.51-5.48.2-2.34-.4-4.62.1-6.92.34-4.27.44-8.54-.16-12.8.12-2.32.15-4.66.6-6.94.41-4.56-.39-9,.81-13.56.53-4.93-.29-9.89.24-14.84.4-3.41.11-6.84.1-10.26.15-8.49.13-16.98.06-25.46.36-3,.1-6.02.07-9,.05-3.02-.02-5.93-.13-8.87.73-1.04.3-2.3-.08-3.45-.21-2.69-.3-5.36.11-8.03.3-1.72.12-3.28-.64-5.01-.41-2.96.39-6.01-.36-8.93.7-.23.08-.53.04-.79.01-4.14-.46-8.32-.26-12.44-.55-3.77-.26-7.43.42-11.15.26-1.96-.08-3.91,0-5.83.48-.55.14-1.16.21-1.73.15-4.88-.57-9.84-.44-14.66-.12-4.67.31-9.35.16-14.01.55-3.25.27-6.61.34-9.8-.19-4.47-.74-8.69.39-13.01.83-3.34.34-6.68.72-10.05.56-2-.1-4.01,0-6.02.06-.59.02-1.23.05-1.93.57.98.36,1.82.29,2.63.23,4.83-.39,9.69.16,14.51-.33,5.43-.54,10.87-.21,16.31-.41,4.82-.18,9.67-.23,14.51-.2,2.62.02,5.24-.3,7.83.32,1.2.29,2.29-.32,3.38-.53,2.56-.5,5.02-.19,7.52.15,1.2.16,2.37.32,3.59-.1,1.04-.36,2.14-.38,3.28-.24,2.36.3,4.73-.13,7.08-.29.88-.06,1.64.27,2.49.22,5.66-.33,11.33-.24,17-.36,5.75-.12,11.51-.05,17.26-.27,4.93-.18,9.9,0,14.85.17.71.02,1.55.12,1.92.62,1.17,1.6,2.91,1.45,4.44,1.4,2.15-.07,4.32-.05,6.87-.14-1.43-.73-2.55-.91-3.74-.62-1.35.33-2.71.44-4.09.33-.67-.06-1.37-.33-1.4-1.05-.03-.75.78-.57,1.24-.62,1.99-.22,3.98-.51,5.98-.53,5.39-.07,10.8.2,16.18-.07,7.95-.4,15.92.04,23.86-.73,1.51-.15,3.06.07,4.58.21.91.09,1.82.12,2.68-.12,1.68-.47,3.32-.38,5-.05.72.14,1.47.15,2.17-.21.59-.3,1.23-.33,1.86-.25,2.78.37,5.56.19,8.33-.09,1.69-.17,3.35.21,5.05.03,6.08-.64,12.2-.88,18.3-.69,6.74.21,13.47.1,20.2-.05,3.15-.07,6.31.04,9.47-.15.72-.04,1.46.21,2.18.36.39.09.67.35.61.8-.06.44-.39.64-.78.65-.95.04-1.9.02-2.85.03-6.7.11-13.42.02-20.1.42-3.89.23-7.81-.22-11.68.48-1.74.31-3.47-.26-5.22-.2-1.79.07-3.58.13-5.37.23-4.41.24-8.83.29-13.24.35-3.06.04-6.17,0-9.16.3-5.23.5-10.44.02-15.64.39-7.37.53-14.76.42-22.14.7-2.91.11-5.75-.38-8.62-.27-.57.02-1.14.12-2,.21,1.63.67,3.03.86,4.49.89,4.21.08,8.42.39,12.63.29,6.26-.15,12.52-.33,18.78-.3.43,0,.88-.02,1.19-.34.78-.79,1.79-.81,2.67-.55,3.15.94,6.3.13,9.45.15,2.78.01,5.59-.13,8.35-.33,4.28-.32,8.53.09,12.8-.15,5.75-.32,11.53-.64,17.26-.3,3.13.19,6.19-.63,9.28-.11,1.92.33,3.63-.86,5.6-.74,7.82.49,15.63-.4,23.46-.32,1.53.01,3.05.31,4.58-.06.31-.08.67.04.78.39.15.48-.23.64-.57.8-.78.35-1.57.65-2.44.61-3.28-.16-6.5.48-9.74.79-1.81.17-3.57-.23-5.38-.12-4.1.25-8.21.03-12.31.17-2.4.08-4.83.17-7.22.46-2.65.32-5.27-.09-7.91,0-5.74.19-11.48.21-17.22.5-2.96.15-5.99.16-8.99-.1-2.9-.25-5.78.39-8.68.46-3.94.1-7.88.25-11.79.62-2.92.28-5.78.1-8.67-.15-1.21-.1-2.39-.01-3.58.42-1.48.53-3.08.14-4.56-.03-2.51-.3-4.94.26-7.42.21-7.11-.16-14.24.4-21.32-.67-2.19-.33-4.35-.68-6.58-.16-.91.21-1.77-.41-2.51-.84-2.83-1.63-5.65-.61-8.45-.08-.8.15-1.47.56-2.17-.15-.29-.29-.68-.17-1.06-.16-1.95.06-3.91.09-5.86.13-1.02.02-2.12-.27-2.79.95-.25.45-.86.3-1.33.21-.77-.14-1.53-.28-2.38-.43.1.21.12.34.19.37.57.27,1.64.05,1.54,1-.11,1.02-1.04.89-1.88.88-1.53-.02-3.06.14-4.59.19-.4.01-.96.06-1.02-.49-.05-.48.51-.42.81-.6,1.03-.63,2.21-.57,3.36-.87-1.57-.83-3.26-.66-4.88-.33-.96.2-1.73.28-2.5-.38-.97-.83-2.03-.07-3.04-.04-.15,0-.35.37-.42.61-.1.36.21.46.48.44.94-.07,1.78.66,2.79.25.54-.22,1.33-.06,1.39.63.06.68-.73.66-1.22.69-3.74.27-7.44-.16-11.14-.68-.95-.14-1.01-.34-.83-1.24.03-.13.03-.33-.04-.4-.2-.2-.45-.21-.73-.11-3.36,1.16-6.67.51-9.97-.31-.46-.11-.82-.19-1.13.18-.12.14-.25.42-.18.55.19.37.61.38.97.41,1.84.18,3.69.11,5.54.23.95.06,1.79.54,2.78.43-.65.69-1.43.81-2.34.96-4.26.7-8.52-.17-12.78.25-2.87.28-5.78.19-8.68.22-2.64.03-5.29,0-7.93.21,1.27.38,2.53.57,3.83.42.52-.06,1.05-.11,1.58-.11,3.63.03,7.25-.09,10.87-.16,2.4-.04,4.84,0,7.26.1,2.42.09,4.83-.18,7.27-.08,3.31.13,6.63.1,9.95.06,4.84-.06,9.69-.23,14.53-.16,5.43.08,10.86-.08,16.3.1,3.34.11,6.73.27,10.1-.09,1.99-.21,4.02-.13,5.94.63.91.36,1.88.3,2.82.21,4.42-.43,8.85-.14,13.27-.31,2.8-.11,5.59-.26,8.39-.29,1.51-.01,3.14.92,4.53-.46.19-.19.59-.05.7.19.67,1.51,2.08,1.09,3.18,1.12,2.47.05,4.97.11,7.4-.24,3.4-.49,6.79-.65,10.2-.68,1.58-.01,3.15-.12,4.73-.07,4.85.15,9.69-.26,14.53-.32,3.37-.04,6.74-.14,10.11-.21,5.8-.11,11.6-.22,17.39-.45,2.5-.1,5.08.03,7.57-.04,3.22-.1,6.42.15,9.63.1,4.82-.07,9.66-.67,14.51.14,1.56.26,3.3.31,5.01-.06,1.72-.37,3.57-.42,5.33-.26,2.31.2,4.62,0,6.92.1,6.19.26,12.4.39,18.6.22,2.23-.06,4.43.29,6.65.3,3.48.02,6.96.01,10.44-.23,3.26-.23,6.51.36,9.75.6,3.96.3,8.01.66,12,0,1.5-.25,2.96-.09,4.42.03,4.69.38,9.41-.09,14.08.41,6.11.64,12.26.13,18.36.83,1.34.15,2.62.17,3.87-.78.74-.57,2-.44,2.89.09,2.25,1.35,4.6,1.16,6.97.62.73-.17,1.24-.04,1.72.42.35.33.71.7.57,1.23-.16.59-.71.62-1.17.58-2.6-.24-5.28.14-7.76-1.08-.78-.38-1.7-.7-2.41.31-.15.22-.57.43-.82.39-1.79-.29-3.59.03-5.35-.08-3.62-.24-7.23-.4-10.85-.44-4.65-.06-9.3.15-13.94-.43-1.24-.15-2.56-.08-3.79.16-2.33.46-4.61-.37-6.89-.15-2.09.21-4.14.4-6.26.2-4.29-.41-8.58.29-12.88.29-2.84,0-5.68-.11-8.52-.04-2.19.05-4.34.77-6.58.44-3.64-.54-7.3.24-10.95-.09-.82-.07-1.7.05-2.51.26-2.55.67-5.09-.06-7.62,0-.9.02-1.8,0-2.67.27-1.25.4-2.49.43-3.74.02-1.23-.4-2.48.24-3.74-.12-.46-.13-1.43-.06-1.36.89.06.81.82.86,1.45.95.53.07.87-.33,1.29-.53,1.49-.72,3.05-.33,3.56,1.11.29.81.71.88,1.37.95,3.37.37,6.75.21,10.13.15,2.95-.05,5.91.07,8.87.15,4.8.14,9.59.76,14.38.76,4.57,0,9.16-.36,13.75-.49,2.9-.08,5.81-.12,8.7.03,1.82.1,3.62.92,5.47.5,4.07-.92,8.19-.42,12.29-.53,3.95-.11,7.92-.13,11.87.02,4.79.19,9.6.39,14.37.33,3.84-.05,7.59.44,11.33.86,4.62.51,9.27.52,13.87,1.09,4.58.57,9.18.8,13.76,1.24,4.08.39,8.13,1.1,12.2,1.65.89.12,1.79.11,2.69.19.5.04,1.23-.07,1.24.65,0,.74-.72.62-1.22.64-2.81.16-5.59-.16-8.39-.39-5.32-.43-10.64-.82-15.96-1.19-1.79-.13-3.59-.19-5.3-.81-1.06-.39-2.08.23-3.14.17-4.27-.26-8.54-.49-12.8-.78-3.05-.21-6.09-.49-9.17-.48-1.5,0-3.04.11-4.52-.08-3.31-.44-6.64.13-9.95-.25-.99-.11-2.01.07-2.96-.41-.18-.09-.44-.16-.61-.1-3.25,1.06-6.49.05-9.73-.07-1.69-.06-3.38.16-5.05.18-3.6.06-7.21-.15-10.81-.35-1.06-.06-2.09-.05-3.15.04-4.34.36-8.69.76-13.04.86-2.76.06-5.48.17-8.23.52-2.6.33-5.27-.03-7.91.02-5.8.11-11.6.32-17.4.44-2.51.05-5.02,0-7.54.25.86.63,1.77,1.15,2.73.92,4.49-1.11,9.05-.57,13.58-.76,1.48-.06,2.96.05,4.43-.2,1.82-.32,3.5.55,5.29.67,4.5.32,8.97.07,13.45-.06,4.44-.13,8.88-.05,13.33-.07,6.91-.03,13.83-.05,20.74-.09.6,0,1.28-.06,1.33.73.05.78-.56.8-1.2.89-2.58.36-5.18.01-7.76.2-.11,0-.27-.03-.31.03-1.1,1.43-2.26.39-3.27-.03-1.65-.69-3.24-.06-4.85-.04-.19,0-.46.1-.55.24-.28.45-.18,1.28-1.04,1.12-.96-.18-2.08.14-2.83-.73-.44-.5-.52-.33-.86.12-.53.68-1.29.74-1.84-.04-.35-.49-.78-.49-1.25-.45-1.28.11-2.5.99-3.84.32-1.44,1.67-3.39.32-5.07.84-1.23.38-2.55.24-3.76-.65-.95-.71-2.1-.43-3.31-.2-2.19.41-4.33,1.66-6.73.58-1.12-.51-2.47-.21-3.69-.26-2.45-.11-4.83,1.27-7.28.2-.84-.36-1.63.28-2.46.23-.15.6.72,1.18-.08,1.62-.75.41-1.16-.07-1.53-.65-.22-.35-.65-.45-.99-.37-1.97.47-3.91-.2-5.85-.23-2.09-.03-4.18-.11-6.28,0-1.2.06-2.51-.35-3.27,1.16-.26.52-1.13.43-1.63.2-1.04-.46-2.16-.49-3.21-.81-.65-.2-1.17-.4-1.62.36-.37.61-.82.28-1.15-.11-.81-.95-1.96-1.12-3.04-1.05-.73.05-2.11-.18-1.76,1.44.09.41-.13.73-.57.81-.46.09-.84-.07-1.07-.49-.26-.48-.24-1.24-1.02-1.25-1.46-.02-2.92-.59-4.39-.03-.63.24-.52.5-.2.93.34.45,1.59.61.98,1.27-.57.62-1.5,1.29-2.66.96-2.05-.58-2.14-.9-.53-3.08-1.29.07-2.48.24-3.66.17-2.82-.16-5.61.42-8.48-.19-3.26-.69-6.62.08-9.93.24-4.99.25-9.98.64-14.96,1.06-4.4.37-8.8,1.16-13.26.88-.54-.03-1.14-.07-1.23.65-.08.66.07,1.24.83,1.52,1.33.48,2.68.21,4.05.11-.28-.1-.57-.18-.85-.29-.49-.19-.84-.52-.63-1.09.19-.53.64-.7,1.16-.57.65.16,1.39.17,1.83.82.55.81.93.6,1.37-.14.68-1.13,1.9-.78,2.69-.48,1.13.42-.17.77-.33,1.27.93.23,1.82.56,1.83-.94,0-.35.12-.64.48-.73.37-.09.59.14.72.47.36.91.67.82,1.05-.02.21-.47.79-.65.93-.09.42,1.68,1.72.85,2.64,1.21.04-.48-.21-.58-.46-.67-.42-.16-1.3.2-1.09-.68.15-.62.94-.5,1.39-.34,1.67.58,3.51-.15,5.14.7.19.1.59.07.75-.06,1.54-1.36,3.39-.29,5.04-.66.18-.04.54.06.57.16.62,1.97,1.31.62,2.14.15.85-.49,1.97.07,2.9-.41.05-.03.33.24.38.41.09.3-.17.45-.37.63-1.15,1.05-2.47,1.53-4.11,1.08.01.14.03.28.05.42,1.02.11,2.04.34,3.06.33,4.89-.07,9.8-.21,14.68-.14,4.9.07,9.8-.49,14.7.07,1.03.12,2.1-.14,3.15-.19,4.21-.2,8.42.18,12.65.07,3.02-.08,5.97,1.16,9.06,1.02.37-.02.92.24,1.1.54,1.51,2.54,3.8,1.28,5.84,1.38.13,1.28-.1,1.7-1.33,1.73-2.38.06-4.76.01-7.14,0-.63,0-1.14-.22-1.36-.88-.16-.5-.52-.66-.99-.47-.8.3.04.51.06.76.04.79-.58.62-.99.63-1.69.03-3.39.04-5.08,0-6.96-.18-13.9.17-20.85.3-7.07.13-14.14.25-21.21.38-.6.01-1.24-.09-2.17.47,3.84.15,7.27.06,10.7.12,3.12.05,6.19-.75,9.36-.16,1.3.24,2.94-.09,4.26.03,2.27.21,4.45-.24,6.67-.19,3.4.07,6.78.13,10.17.48,1.85.19,3.8-.06,5.68.14,3.63.39,7.26.07,10.89.16,4.31.11,8.64.37,12.94.12,4.16-.25,8.31-.08,12.47-.23,5.79-.21,11.61.08,17.4-.15,3.89-.15,7.8.31,11.67-.44.2-.04.49-.1.62,0,1.76,1.34,3.75.37,5.62.57.63.07,1.22.13,1.26.88.05.81-.5.9-1.18.85-1.73-.14-3.32.69-5.09.72-1.37.02-2.8.24-4.19.18-2.53-.12-5.05-.56-7.58-.59-1.7-.02-3.35.81-5.09.81-.57,0-.51.57-.75.88-.46.6-1.16.83-1.83.5-.72-.36-.06-.91,0-1.28-3.53-1.07-7.09-.27-10.63-.23-.74,0-1.48-.04-2.21-.03-1.26.01-2.48-.03-3.51,1.02-.81.83-1.46.58-1.75-.48-.17-.61-.69-.38-1.05-.38-2.06-.03-4.08.54-6.15.28-.11.66.87.86.42,1.47-.44.59-1.11.47-1.6.22-1.86-.94-3.44.29-5.14.56-.62.1-1.22.51-1.82.5-2.93-.05-5.88.66-8.8-.22-1.19-.36-2.32-.17-3.55.14-1.77.44-3.69.5-5.5.03-2.91-.76-5.74-.26-8.6.29-1.49.29-2.98.63-4.55.37-2.09-.35-4.19-.13-6.29.07.04.49.36.42.58.41,3.74-.19,7.47.17,11.23-.19,2.96-.29,6.01.4,9,.09,4.33-.44,8.65.28,12.96-.01,1.84-.12,3.65-.55,5.48-.76.85-.1,2.39-.38,2.42.3.05,1.04-1.32.39-2.06.56-.83.19-1.6.48-2.82,1.1,1.12.26,1.73.9,2.52.01.16-.18.49-.41.65-.36,1.8.6,3.52-.32,5.32-.22,4.56.23,9.14.07,13.72-.07,2.15-.07,4.31.11,6.47.19.5.02.93.23,1.22.64.31.44,1.08.75.67,1.44-.38.64-1.03.23-1.59.24-1.73.02-3.32-.41-4.74-1.31-.36.28-.17.53-.1.77.09.3.31.64-.04.86-.36.23-.71,0-1.02-.22-1.86-1.34-4.18-1.42-6.13-.16-.53.34-.91.11-1.27-.21-.63-.55-1.37-.48-2.11-.45-.54.02-1.13.05-.9.89.07.24-.03.55-.24.46-1.71-.75-3.23,2.25-5.16-.42.7,2.41,2.6,2.83,4.19,1.99,1.92-1.02,4.16-1.22,6.33-.92,1.28.17,2.41.6,3.79.02,1.15-.49,2.42-.03,2.9,1.44.1.3.19.8.47.75,1.56-.25,3.14.4,4.68-.13.43-.15.51-.38.26-.85-.48-.88.06-1.1.84-1.13,2.6-.12,5.21-.27,7.81-.39,1.53-.07,3.06-.11,4.59-.12.54,0,1.14.11,1.16.8.02.61-.54.68-1.01.81-1.03.28-2.08.32-3.14.31-.6,0-1.26-.22-1.99.47,2.43.32,4.62-.11,6.8-.43,2.16-2.86,5.18-1.74,7.97-1.74,1.31,0,2.63-.17,3.94-.3.46-.04.82-.27.78-.81-.04-.54-.41-.7-.88-.69-.73.02-1.48-.12-2.14.37-.58.43-1.19.84-1.55-.28-.09-.29-.46-.31-.63-.04-1.12,1.76-2.59.88-3.9.44-.71-.24-1.16-.12-1.85.06-2.46.66-5,.74-7.48.02-.76-.22-1.43-.74-2.17,0-.1.1-.36.19-.43.13-1.4-1.11-3.2-.43-4.7-1.05-.38-.16-.88-.27-.83-.81.04-.44.49-.56.84-.6,2.69-.32,5.36-.04,8.02.38.27.04.55.55.81.21.82-1.07,1.53-.93,2.26.07.05.06.22.11.28.07,2.32-1.38,4.83-.66,7.28-.69,2.48-.03,4.94-.16,7.43-.03,2.67.14,5.37-.08,8.05.1.66.04,1.55-.18,1.71.73.16.89-.77,1.07-1.35,1.31-.95.4-1.98.39-2.93-.06-.92-.43-1.85-.41-2.79-.25-.35.06-.84.18-.84.59,0,.52.56.64.94.66,1,.03,2-.09,3-.07,4.05.09,8.1.28,12.14.3,3.78.01,7.54.31,11.34,0,4.94-.4,9.9.34,14.85.67,4.85.32,9.7.51,14.54.94,7.79.69,15.59,1.08,23.38,1.74,5.73.49,11.44,1.18,17.19,1.46,2.62.13,5.23.66,7.84.98,5.03.61,10.06,1.17,15.08,1.81,1.41.18,2.79.56,4.2.77.97.14,1.95.15,2.98-.12-.69-.17-1.4-.52-2.08-.48-2.15.14-4.12-.9-6.25-.86-.57,0-1.17-.12-1.71-.32-3.82-1.43-7.88-1.33-11.82-1.96-2.19-.35-4.76,0-6.46-2.05-.09-.11-.14-.25-.25-.46,1.17-.48,2.28-.07,3.29.16,3.3.76,6.71.63,10.01,1.39,3.5.8,7.04,1.39,10.56,2.04,1.24.23,2.5.45,3.75.55,4.31.34,8.54,1.25,12.77,2.05,4.74.9,9.58,1.26,14.23,2.69.44.14.94.07,1.42.09,1.96.09,2.32.73,1.35,2.42.53.33.98-.32,1.51-.12.42.16.82.35.8.85-.03.56-.53.72-.93.6-1.61-.46-3.41-.11-4.89-1.09-.68-.45-1.42-.32-2.15-.38-.45-.04-1.11.04-1.08-.62.04-.72.75-.72,1.23-.62,1.22.26,2.4.72,3.68.73.2,0,.4.03.74.06-1.05-1.16-2.45-.88-3.61-1.2-1.46-.41-3.05-.37-4.58-.51-.15-.01-.37-.03-.46.06-2.03,2.01-4.37.64-6.56.55-4.99-.2-9.92-1.09-14.88-1.67-5.7-.67-11.39-1.43-17.1-2.08-1.46-.17-2.96-.1-4.44-.14-.92-.02-1.01.41-.54,1.06.62.85,1.39,1.58,1.96,2.48.45.7.76.24.91-.31.62-2.27,1.39-2.74,3.71-2.33,1.14.2,2.22.7,3.4.73.37,0,.76.15.86.58.11.51-.3.6-.67.69-.25.07-.59.07-.62.39-.05.4.34.46.6.62.54.33,1.02.84,1.6.97.42.1,1.81,1.08,1.26-.76-.13-.45.32-.61.58-.37,1.19,1.08,2.76,1.27,4.15,1.86.53.22,1.22.56,1,1.23-.23.72-1.01.56-1.5.31-1.29-.65-2.61-.06-3.91-.23-4.13-.52-8.29-.81-12.4-1.47-2.69-.43-5.38-.81-8.07-1.21-1.55-.24-3.03.34-4.56.37-.31,0-.65.19-.93.12-5.28-1.29-10.76-.18-16.07-1.4-1.93-.44-3.99-.3-5.99-.43-.88-.06-1.83.14-2.41-.83-.14-.23-.5-.42-.68-.22-1.17,1.25-2.04.35-3.02-.3-.36-.24-.91-.22-1.38-.25-4.37-.29-8.74-.71-13.12-.78-2.61-.05-5.22.05-7.82-.33-.03.16-.05.32-.08.48,1.42.29,2.84.67,4.28.85,3.43.43,6.89.59,10.31.91,2.88.27,5.78.38,8.66.63,4.48.38,8.97.84,13.47,1.05,1.29.06,2.46.62,3.74.65,3.46.08,6.92.35,10.37.64,2.01.17,3.88.86,5.81,1.32,1.37.32,2.08,1.26,1.27,2.9ZM458.26,75.78c2.26-.16,4.51.5,6.77.03.55-.11,1.3-.04,1.33.74.03.79-.69.81-1.27.86-.95.07-1.95-.12-3.19.73,4.24-.18,8.03-.69,11.96-.48-.39-.46-1.14-.31-1.17-.99-.03-.71.74-.68,1.2-1.11-.86-.04-1.51-.16-1.93.67-.34.68-1.04.62-1.42.07-.7-1.02-1.75-1-2.69-.92-1.95.16-3.9-.02-5.85.09-1.25.07-2.54-.19-3.75.32-.32-.02-.64-.01-.95-.06-.52-.09-1.17-.18-1.14-.85.03-.8.7-.56,1.21-.54.38.02.84.27,1.07-.3-1.22-.57-3.63-.61-5.24-.09,1.57,2.38,3.05,2.92,5.04,1.83ZM568.95,65.03c-.84,0-1.37-.02-1.9,0-2.56.13-5.14.48-7.68.34-2.54-.13-5.06.22-7.59.06-.26-.02-.58.02-.58.37,0,.31.3.4.57.43.26.03.53.02.79.04.57.05,1.31-.02,1.36.75.05.78-.7.88-1.26.89-1.9.02-3.8,0-5.69-.07-.73-.03-1.84.4-2.05-.6-.19-.88,1.03-.86,1.54-1.34.1-.09.16-.23.29-.42-18.18.38-36.28.4-54.35,1.58,1.44.17,2.88.18,4.32.17,1.18,0,2.43-.42,3.35.82.36.49.81.24,1.21-.14,1.15-1.11,2.65-.81,4.04-.93.47-.04.97.26.95.86-.03.59-.55.71-1.02.83-.82.21-1.47-.4-2.52-.67.65.94,1.33,1.59,2.06,1.35,1.47-.47,2.91.04,4.36-.17,3.91-.58,7.89-.78,11.81-.6,4.27.19,8.52-.25,12.77-.03,2.74.14,5.42-.56,8.2-.19,3.22.43,6.58.93,9.74.46,3.9-.59,7.74.02,11.59-.33.47-.04.94.07,1.42.11,2.92.26,5.83,1.06,8.95-.08-2.6-.15-5.03-.16-7.38-1.02,1.57-.06,1.59-1.64,2.73-2.48ZM596.99,63.35c27.96.11,55.84,1.84,83.67,4.53-.7-.45-1.32-.92-2.15-.97-3.59-.21-7.13-.76-10.7-1.15-4.76-.53-9.59-.43-14.37-.86-8.83-.78-17.68-1.28-26.53-1.38-5.26-.06-10.5-.28-15.74-.54-4.75-.24-9.46-.23-14.19.37ZM391.49,29.97c12.18.03,24.35.06,36.52-.67-3.57.09-7.12-.77-10.67-.35-2.43.29-4.72.14-6.93-.96-.9-.44-1.85-.81-2.9-.42-.33.12-.84.17-.55.71.49.93-.25.81-.72.88-.47.07-1-.05-1.41.13-1.22.52-2.12.55-2.94-.77-.57-.92-1.4-.64-1.72.42-.16.54-.62.53-1.03.53-1.11-.02-2.22-.04-3.32-.15-1.49-.16-2.89.19-4.32.66ZM600.3,65.38c0,.18,0,.35,0,.53,3.61-.33,7.04.89,10.66.84,5.98-.07,11.99.03,17.94.96.69.11,1.38.12,2.16-.75-1.24-.02-2.2.42-2.98-.15-2.06-1.51-4.44-1.16-6.72-1.12-4,.06-7.99-.05-11.99-.27-3.02-.17-6.06-.03-9.09-.03ZM483.07,28.23h18.75c-.25-.67-1.11-.7-.86-1.4.21-.58.75-.71,1.27-.8.85-.15,1.67-.36,2.38-.92-1.74.28-3.47.18-5.2.24-.67.02-1.24.26-1.44,1-.28,1.03-.93,1.35-1.92.96-.3-.12-.61-.33-.9-.15-1.03.63-1.27-.12-1.52-.84-.15-.43-.11-.96-.81-.96-2.92.02-5.85,0-8.77,0,1.6.33,3.26.08,4.8.78.23.11.64-.01.9-.16,1.2-.64,1.83-.02,2.45.97-3.07.7-6.11.6-9.13,1.27ZM435.18,26.5c-.71,2.89-3.46,1.87-5.37,3.29,7.98-.9,15.57-.22,23.11-.98-1.68-.7-3.38-1.15-5.19-.76-.76.16-1.53.1-2.07-.48-.92-.99-2.01-1.15-2.9-.13-.67.77-1.43,1.09-2.36.92-1.1-.2-2.2-.16-3.31-.16-1.01,0-2.13.15-1.91-1.7ZM693.63,66.34c-15.76-1.99-31.54-3.55-47.73-4.24,3.32,1.12,6.43.65,9.49.93,2.25.21,4.5.51,6.76.57,5.7.14,11.36.63,16.93,1.89.81.18,1.64.32,2.51.24,2.9-.27,5.73-.19,8.56.76.99.33,2.3.16,3.47-.15ZM481.58,28.01c-1.21-.28-2.41-.56-3.62-.84-.38-.09-.75-.21-.77-.66-.02-.38.3-.5.59-.65.25-.13.65-.01.76-.47-2.16-.23-4.24.28-6.73.38,1.18.69,2.01.31,2.82.27.68-.03,1.12.36,1.21,1.01.1.78-.53.8-1.05.85-1.47.14-2.92.31-4.42.18-1.95-.17-3.95-.24-5.85.53,5.67.18,11.32-.14,17.06-.6ZM505.96,82.25c1.14.36,2.55-.23,3.25,1.19.33.68-.49.77-.82,1.14,2.57.3,5.08.56,7.65-.21-.64-.69-1.25-.77-1.98-.55-.42.13-.95.03-.97-.51-.03-.62.54-.58.94-.5.96.21,1.78-.11,2.84-.54-3.81-.57-7.36.28-10.9-.03ZM387.42,27.91c-1.91,2.1-2.55,2.4-4.53,2-.67-.13-1.3-.31-2.01-.19-.76.12-1.6.28-1.91-.83-.12-.44-.71-.48-.93-.23-.79.9-1.78.86-2.83.93-.63.04-1.29.43-1.72,1.12,5.16-.45,10.31.04,15.8-.41-.99-.79-1.89-1.2-1.87-2.38ZM470.82,67.33c0,.19-.01.38-.02.56,1.22,0,2.45-.02,3.67.01.51.01,1.24,0,1.26.65.02.77-.75.53-1.22.59-1.32.17-2.68-.27-4.14.27,2.45.83,5.58.76,9.85-.17-.5-.72-.57-.56-2.97-1.6-2.21-.96-4.3-.32-6.44-.31ZM483.82,33.44c7.44-.52,14.91.47,22.33-.8-7.44.23-14.9-.31-22.33.8ZM503.4,27.56c-.01.13-.02.25-.04.38,4.34.31,8.68.28,13.38-.24-1.18-.63-2.08-.46-2.92-.34-1.21.17-2.41.24-3.63.21-.48-.01-1-.01-1.25-.51-.29-.56.16-.86.5-1.18.42-.4.79-.84.53-1.41-1.41.92-3.48.94-4.12,2.93-.04.13-.58.13-.9.14-.52.02-1.04,0-1.56,0ZM449.43,47.86h-14.49l.02.56c4.85.17,9.68-.18,14.48-.56ZM418.76,49.98c2.35.05,4.57-.01,6.77-.5.47-.1,1.29.19,1.3-.49,0-.69-.81-.43-1.29-.49-1.74-.22-3.44.72-5.24.09-.85-.3-1.17.61-1.54,1.39Z"/>
  <path class="cls-1" d="M624.65,44.8c-.19-.94-.75-.96-1.27-1.01-3.34-.36-6.64-1.21-10.05-.79-.38.05-.79,0-.86-.48-.07-.48.36-.61.7-.73,1.63-.54,3.28-.81,5-.52.68.11,1.35.2,2.09-.24-1.17-.54-2.3-.76-3.52-.75-2.85.04-5.61-.17-8.34-1.37-1.45-.64-3.33-.47-5-.37-1.59.1-3.17.07-4.75.06-.61,0-1.45.04-1.48-.82-.03-.91.85-.82,1.48-1.08,3.01-1.2,6.07-.19,9.1-.26,4.06-.1,8.14.08,12.2.13,5.8.07,11.6.48,17.41.05,1.59-.12,3.22.51,4.84-.06.25-.47-1.13-.75-.24-1.2.76-.38,1.69-.42,2.27.43,1.1,1.59,3.7,2.31,6.08,1.38-1.44-.17-2.53-.29-3.62-.44-.33-.04-.85.07-.79-.5.04-.37.46-.43.77-.39,1.36.17,2.7.48,4.09.37.17-.01.5.18.51.29.18,2.26,1.91,1.44,3.08,1.48,1.06.03,2.46.61,2.89-1.24.13-.56,1.02-.36,1.59-.22.51.13,1.2.32,1.03.97-.3,1.15.4,1.09,1.1,1.13.88.05,1.77.12,2.78.19-.75-.59-1.52-.42-2.23-.51-.51-.06-.99-.25-.89-.87.1-.62.6-.6,1.11-.57,4.1.22,8.11,1.32,12.24,1.15,1.42-.06,2.67.94,4.16.55.46-.12.82.38.87.94.07.92.88.82,1.44.93.88.16.27-.57.42-.86.29-.56.75-.49,1.23-.43,1.62.21,3.25.41,4.86.66.49.07,1.15.03,1.24.74.08.71-.76.49-1.12.94,1.41.11,2.72.23,4.03.31.46.03,1,.11,1.21-.49.28-.8.85-.93,1.51-.6.8.4.01.99.06,1.42,3.3.54,6.56,1.06,9.81,1.63.93.16,1.91-.13,2.8.37.32.18.76.29.68.75-.08.45-.53.45-.9.47-2.55.12-5.08,0-7.5-.88-.89-.32-1.74-.3-2.64-.22-.56.05-.93.06-.84.76.08.65.49.6.92.49,1.14-.28,2.2.11,3.25.42.41.12.86.32.73.86-.1.43-.54.48-.91.48-1.47-.01-2.95-.04-4.42-.08-.85-.02-1.12-.65-1.1-1.33-.64-.08-.77.38-1.09.54-.42.21-.83.21-1.15-.16-.29-.33-.22-.7.06-1,.37-.42.73-.85.24-1.37-.42-.44-.96-.63-1.59-.42-.25.08-.52.18-.77.16-.59-.05-1.35-.58-1.57.31-.05.2.98.75,1.56,1.01.51.23,1.51-.06,1.2.97-.25.84-1.03.45-1.64.38-3.2-.38-6.37-1.01-9.61-.95-.61.01-1.39.12-1.61-.67-.2-.72.71-.66.92-.99.96-1.48,2.24-1.09,3.54-.83.66.13,1.32.39,2.22.06-2.4-.98-4.73-1-7.08-.94-.25,0-.41.1-.37.37.3,1.94-1.13,1.46-2.03,1.31-2.23-.36-4.46-.91-6.71-.84-3.08.1-5.98-.89-8.99-1.16-.26-.02-.53-.07-.79-.06-.35,0-.84-.1-.94.37-.11.53.35.72.78.8,1.75.35,3.53.53,5.29.9,2.88.61,5.79,1.26,8.72,1.39,4.76.2,9.33,1.47,14.05,1.89,4.34.39,8.63,1.43,12.97,1.93,3.41.39,6.78.97,10.13,1.64,2.68.53,5.35,1.08,8.05,1.51.63.1.9.52.79,1.15-.09.51-.12,1.11-.77,1.26-.63.14-.65-.35-.91-.78-.54-.9-1.54-.62-2.27-.28-.59.28-1.11.41-1.64.12-1.6-.88-3.34-1.28-5.11-1.56-1.02-.16-2.18-.96-2.95.63-.27.55-1.15-.3-1.41-.09-1.51,1.21-1.43.19-1.54-.92-.06-.58-.74-.66-1.26-.78-2.32-.55-4.71-.62-7.05-.97-.52-.08-1.04-.19-1.54-.35-.79-.26-1.43-.43-2.07.46-.46.64-1.29.96-1.48-.38-.06-.46-.45-.38-.74-.4-1.93-.12-3.82-.65-5.68-.84-3.38-.34-6.64-1.26-9.96-1.82-3.18-.54-6.46-.29-9.6-1.43-1-.36-2.77-1-3.83.64-.25.39-.78.11-1.17-.06-1.01-.44-2.08-.23-3.13-.25-.32,0-.72.06-.74.44-.02.41.39.42.7.45,1,.1,1.99.25,3,.29,1.38.06,2.74.11,4.01.77.67.35,1.45.29,2.19.22,1.11-.1,2.21-.33,3.13.58.1.1.31.18.44.15,1.99-.54,3.85.35,5.77.52,3.3.3,6.58.7,9.87,1.06.26.03.52.09.78.16.39.12.94.16.89.72-.07.64-.68.64-1.12.58-4.37-.63-8.87,0-13.19-1.36-1.32-.41-2.84-.13-4.25-.32-6.33-.87-12.71-1.31-19.08-1.73-1.84-.12-3.67-.2-5.5-.51-1.03-.18-1.02-.5-.55-1.21.18-.27.72-.47.28-.88-.17-.16-.49-.2-.73-.2-.41,0-.77.22-.74.66.13,1.89-1.33,1.75-2.38,1.65-7.31-.74-14.65-.85-21.98-1.29-5.31-.32-10.67.06-15.96-.35-4.6-.35-9.16.25-13.73-.09-1.73-.13-3.45-.28-5.19-.06-.59.08-1.48.07-1.48-.77,0-.7.82-.73,1.38-.75,2.63-.09,5.25-.12,7.88-.22,3.48-.14,6.98.29,10.42.1,2.73-.15,5.34.42,8.01.35,1.26-.03,2.52.06,3.75-.42,1.06-.41,2.01.47,3.09.44,2.32-.06,4.64-.05,6.95.02,1.46.05,2.92.27,4.54.43Z"/>
  <path class="cls-1" d="M672.16,92.35c-1.18-1.5-3.55-.44-4.45-2.56,3.78-.71,7.52.32,11.23.1-3.78-1.03-7.67-.94-11.49-1.11-5.2-.22-10.37-.85-15.57-.95-.31,0-.64-.04-.94-.12-.37-.09-.74-.29-.72-.72.02-.57.5-.63.93-.62,1.27.04,2.53.12,3.8.16.67.02,1.21.05,1.59-.86.49-1.2,1.77-.78,2.64-.46.93.34.26,1.01-.1,1.59,3.2.28,6.34.53,9.47.83.84.08,1.43.02,1.64-.97.11-.5.63-.7,1.15-.62.48.07.77.37.65.89-.08.37-.29.8.31.82.71.03,1.79.44,2.05-.29.84-2.34,1.91-.57,2.53-.09.85.66,1.27.94,2.23.12,1.65-1.42,6.39-.62,7.52,1.26.34-1.16,1.09-1.41,2.04-.95.59.29,1.09.26,1.65-.05.38-.21,1.03-.35,1.2-.08.7,1.11,1.97.71,2.84,1.24.58.36.62-.1.84-.33.42-.44.93-.58,1.43-.27.68.42.62,1.3.84,1.94.19.54-.68.44-1.09.58-1.05.36-2.09-.1-3.14-.1-2,.01-3.94-.64-5.97-.36-.84.12-1.81-.07-2.29-1.07-.33-.69-1-.62-1.74-.66,1.86,2.74,4.74,2.46,7.28,2.59,5.23.27,10.4,1.09,15.62,1.48,2.38.18,4.81.56,7.18,1.11.44.1,1.09.05,1.07.69-.02.68-.71.8-1.2.76-2.16-.17-4.31-.38-6.45-.66-.7-.09-1.38-.56-1.36.68,0,.42-.29.69-.71.71-.55.02-.73-.34-.71-.83,0-.26-.05-.74-.25-.64-1.59.77-3.35-.56-4.87.38-.79.49-1.54.23-2.31.21-3.05-.1-6.1-.25-9.15-.38-.65-.03-1.27-.1-1.7-.67-.17-.22-.41-.35-.7-.27-4.95,1.34-9.92.28-14.88.12-.68-.02-1.37.05-2.06.05-.51,0-1-.13-1.1-.69-.1-.57.44-.61.8-.8.84-.45,1.68-.57,2.58-.17.53.23,1.07.47,1.8.05Z"/>
  <path class="cls-1" d="M725.68,42.33c-1.48-.16-3.13-.03-4.72-.48-4.53-1.29-9.22-2.02-13.82-2.46-6.84-.66-13.58-2.13-20.47-2.4-3.01-.11-6.02-.94-9.06-1.23-.44-.04-.84-.28-.8-.81.04-.53.47-.69.91-.7.52-.02,1.06,0,1.58.09,1.23.2,2.42.62,3.64-.25.61-.43,1.45.04,2.16.15,4.01.64,8.03,1.05,12.07,1.44,4.7.46,9.32,1.78,14.01,2.44,4.08.57,8.08,1.42,12.08,2.4.47.11.96.17,1.28.57.54.67,1.05.54,1.8.26,1.71-.64,3.46.04,5.05.47,2.85.78,5.8,1.15,8.57,2.24.51.2,1.15.01,1.71.13.56.12.98.52.8,1.15-.17.57-.71.65-1.18.46-3.6-1.42-7.58-1.21-11.19-2.59-1.36-.52-2.67-1.29-4.38-.89Z"/>
  <path class="cls-1" d="M23.81,118.46c2.4-.43,3.64,1.57,4.34,3.28.22.52.22,1.12.69,1.55.16.15.24.68.22.69-1.28.55-.99,2.07-1.82,2.88-.38.37-.85.67-1.4.65-.94-.02-1.68.29-2.44.87-1.09.82-3.6-.19-4.44-1.66-1.76-3.08-.93-6.05,2.18-7.92.8-.48,1.64-.25,2.67-.35Z"/>
  <path class="cls-1" d="M696.16,57.23c-.42,0-.96.17-1.23-.03-2.36-1.73-5.11-.81-7.66-1.18-.38-.05-.79-.07-.91-.48-.16-.53.25-.75.65-.93,1.51-.67,3.12-.35,4.51.08,1.81.55,3.64.59,5.45.87,3.42.53,6.87.95,10.29,1.47,4.05.62,8.08,1.35,12.15,1.9,2.2.3,4.45.6,6.61,1.37,1.82.64,3.8.87,5.73,1.11,1.49.18,2.86.7,4.29,1.08.37.1.76.24.7.71-.06.46-.48.52-.85.53-1.66.06-3.22-.55-4.83-.8-4-.63-7.89-1.94-11.93-2.26-4.49-.35-8.81-1.57-13.25-2.18-3.23-.45-6.49-.71-9.7-1.27Z"/>
  <path class="cls-1" d="M616.89,2.79c-2.63-.14-5.23.48-7.72-.59-1.08-.46-2.15.41-3.27.28-2.56-.31-5.14-.13-7.71-.45-1.31-.16-2.89.32-4.11.08-3.62-.7-7.17.62-10.75-.07-1.39-.27-2.83-.25-4.24-.42-.59-.07-1.45-.11-1.28-1.02.15-.79.87-.51,1.45-.49,4.22.16,8.44.24,12.66-.03.16,0,.38-.12.46-.06,2.11,1.71,4.32-.25,6.5.17,1.95.38,4,.43,6,.35,4.39-.18,8.74.74,13.14.38,1.09-.09,2.2.18,3.3.3.38.04.76.18.82.62.08.55-.34.72-.75.86-1.51.52-3.05-.09-4.49.09Z"/>
  <path class="cls-1" d="M96.31,110.69c.16,2.19-1.38,4.55-3.06,4.7-2.5.22-5.12-2.28-5.26-5.01-.1-1.97,1.96-4.16,4.05-4.3,2.55-.17,4.03,1.43,4.27,4.62Z"/>
  <path class="cls-1" d="M727.18,73.15c-.63-.3-1.49-.1-1.38-.83.12-.77.9-.5,1.45-.48.42.01.99.16,1.23-.05.95-.83,1.89-.98,2.81-.11.71.67,1.93.69,2.23,1.88.16.62.63.66,1.09.23,1.16-1.09,2.78-.24,4.05-.99.34-.2.79.23.92.68.13.43-.21.52-.53.62-.36.11-.69.28-.78.82,1.3.51,2.28.21,2.97-1.3.57,1.11.3,2.01-.12,2.69-.45.74-1.37.46-2.04.21-2.48-.91-5.09-.92-7.66-.99-1.76-.05-3.46-.39-5.17-.68-.41-.07-.94-.02-1.03-.54-.1-.6.4-.8.87-.94.3-.09.61-.12,1.1-.21Z"/>
  <path class="cls-1" d="M137.54,112.8c.35.97-.57,1.13-.79,1.71-.39,1.03-.65,2.16-1.43,3.03-.28.32-.55.64-.96.79-1.03.36-4.54-2.3-4.31-3.37.14-.64.24-1.19,0-1.81-.07-.19.1-.5.2-.73.77-1.83,4.82-3,6.45-1.89.88.6.64,1.61.84,2.27Z"/>
  <path class="cls-1" d="M631.69,1.71c3.17.41,6.42.12,9.56.56,3.6.5,7.24.55,10.82,1.13.56.09,1.29.08,1.21.91-.08.77-.75.99-1.42.95-1.21-.08-2.42-.18-3.62-.37-2.79-.44-5.55-1.02-8.41-.6-.86.13-1.79-.07-2.66-.25-1.49-.32-2.95-.72-4.5-.28-.5.14-1.06,0-1.5-.34-.41-.33-.89-.68-.71-1.29.19-.65.77-.37,1.24-.41Z"/>
  <path class="cls-1" d="M626.1,7.24c-3.29-.66-6.48.31-9.7.29-.45,0-.82-.16-1.18-.39-.31-.19-.71-.52-1-.18-1.1,1.31-2.59.53-3.88.8-.55.11-1.11.02-1.22-.67-.1-.64.33-1.03.88-1.13,1.69-.31,3.44-.9,5.09-.73,1.54.16,3.04-.07,4.55.09.26.03.63.06.77-.08,1.94-1.97,4.16.24,6.23-.42.64-.2,1.16.68,1.03,1.46-.15.88-.93.88-1.56.96Z"/>
  <path class="cls-1" d="M658.42,53.02c-3.62-.36-7.23-.77-10.85-1.06-2.57-.21-5.11-.73-7.71-.63-.31.01-.64,0-.94-.09-.51-.13-1.16-.26-1.06-.94.09-.61.71-.77,1.25-.72,1.36.12,2.72.34,4.09.45,2.65.22,5.3.37,7.94.59,3.02.24,6.03.52,9.05.78.6.05,1.28.15,1.24.9-.04.7-.75.61-1.26.64-.58.03-1.16,0-1.74,0,0,.02,0,.05,0,.07Z"/>
  <path class="cls-1" d="M663.47,26.91c-3.71-.69-7.69-.57-11.57-1.41-1.79-.39-3.66-.42-5.49-.66-.52-.07-1.02-.28-1.52-.44-.26-.09-.46-.29-.45-.58,0-.36.24-.59.57-.66.3-.07.63-.1.94-.07,3.8.46,7.59.95,11.39,1.4,1.57.19,3.13.33,4.72.34,1.24,0,2.28.99,3.56,1.06.21.01.33.31.23.51-.08.16-.29.31-.47.34-.57.09-1.15.12-1.91.19Z"/>
  <path class="cls-1" d="M654.66,5.47c1.28-1.72,2.96-1.6,4.47-1.33,4.06.73,8.21.36,12.25,1.19.88.18,1.72.49,2.58.7.55.14,1.07.6.96,1.1-.16.7-.86.37-1.34.3-3.94-.64-7.94-.76-11.9-1.29-2.26-.3-4.59-.15-7.02-.68Z"/>
  <path class="cls-1" d="M574.96,76.09c-3.16.25-6.04-.61-8.99-.57-1.28.02-2.51.21-3.76.34-.81.09-2.29.4-2.37-.79-.07-1.08,1.25-1.11,2.22-1.24,2.01-.26,3.9-.13,5.92.37,1.75.44,3.76,0,5.63-.24,1.69-.21,3.19.68,4.84.61.52-.02.86.46.79,1-.07.57-.57.52-1,.52-1.16,0-2.32,0-3.28,0Z"/>
  <path class="cls-1" d="M602.08,75.65c-1.75-.09-3.71.45-5.22.15-1.98-.4-3.67.51-5.36.24-1.64-.26-3.22-.69-4.9-.52-.41.04-.85.06-1.23.2-.49.18-.95.44-1.01-.37-.05-.58-.4-1.41.64-1.43,1.5-.03,2.95-.54,4.52-.1,3.19.9,6.43-.19,9.66-.11,1.01.03,1.99,0,2.96.28.69.2,1.71.22,1.58,1.2-.13.95-1.1.12-1.63.45Z"/>
  <path class="cls-1" d="M664.39,9.73c-2.32-.41-4.65-.17-6.96-.7-1.86-.42-3.84-.3-5.77-.45-1.64-.13-3.18-1.02-4.94-.52-.72.2-.88-.59-.45-1.2.29-.41.77-.6,1.26-.54,2.38.31,4.79.36,7.09,1.29.78.32,1.86-.16,2.81-.18,2.64-.05,5.23.6,7.88.52.53-.02,1.17.34.96.98-.29.86-1.22.64-1.88.8Z"/>
  <path class="cls-1" d="M625.31,35.37c-5.41-.17-10.81-.34-16.22-.53-.74-.03-1.47-.14-2.2-.25-.48-.07-1-.21-.89-.86.1-.59.62-.66,1.11-.65,2.8.07,5.61-.02,8.39.28,3.3.36,6.65.06,9.92.73.56.12,1.53-.1,1.46.79-.07.85-1,.49-1.57.49Z"/>
  <path class="cls-1" d="M517.79,12.97c-2.36.2-4.49-.57-6.64-.18-1.55.28-3.09.57-4.66.17-.53-.13-1.34.08-1.31-.75.02-.68.75-.97,1.3-.92,1.91.19,3.81-.45,5.66-.15,2.71.44,5.36-.27,8.03-.11.37.02.74-.03,1.1,0,.44.04.86.21.86.74,0,.49-.34.77-.79.85-1.25.22-2.49.47-3.56.35Z"/>
  <path class="cls-1" d="M554.03,27.22c-3.46.13-6.17-.39-8.87.16-1.07.22-1.79-.75-2.72-1.08-.31-.11-.31-.53-.13-.84.22-.36.58-.44.97-.34,4.08,1,8.21.34,12.32.35,1.07,0,2.09.18,3.13.29.42.04.84.3.83.81,0,.57-.5.65-.92.65-1.79.02-3.57.01-4.61.01Z"/>
  <path class="cls-1" d="M602.49,25.29c3.73.83,7.63-.08,11.44.68.36.07.74.08,1.09.19.52.16,1.07.43,1.01,1.05-.07.71-.75.68-1.25.65-4.57-.31-9.14-.74-13.73-.64-.49.01-1-.12-1.06-.72-.06-.57.38-.86.86-.97.51-.12,1.04-.15,1.64-.23Z"/>
  <path class="cls-1" d="M662.68,91.01c-1.57-.12-2.78-.24-3.99-.3-.66-.03-1.33-.15-1.62.82-.19.64-1.12.57-1.29.15-.61-1.45-1.88-1.02-2.93-1.23-.21-.04-.43-.03-.63-.09-.61-.19-1.63-.08-1.51-1.01.11-.86,1.03-.59,1.7-.67,3.5-.43,6.91.48,10.36.69.64.04,1.61-.2,1.61.78,0,.94-.94.78-1.6.85-.16.02-.32,0-.11,0Z"/>
  <path class="cls-1" d="M706.25,82.75c1.82-.62,3.64.1,5.48-.1.55-.06,1.14-.02,1.24.66.12.79-.5.99-1.11,1.01-2,.07-4.06.36-5.99-.11-1.92-.46-4.04.23-5.78-1.09-.23-.18-.7-.14-.69-.53.01-.46.47-.59.82-.59,1.05,0,2.1.08,3.15.11.52.01,1.08.04,1.44-.47.34-.5.73-.73,1.33-.41.77.41-.04.9.11,1.52Z"/>
  <path class="cls-1" d="M609.6,57.19c-1.59.2-3.08-.31-4.48.47-.49.27-1.16.1-1.62-.34-.46-.44-1-.54-1.59-.56-.59-.02-1.31-.07-1.3-.83,0-.93.85-.79,1.44-.78,1.73.03,3.44.34,5.19.22,2.03-.13,4.09.03,6.13.09.54.02,1.35-.12,1.34.69,0,.69-.75.62-1.25.61-1.36-.01-2.61.98-3.87.42Z"/>
  <path class="cls-1" d="M642.38,7.84c-2.42-.62-5.07.02-7.69-.24-.88-.09-1.63-.37-2.32-.88-.35-.25-.75-.49-.53-1.01.22-.5.68-.7,1.18-.59,3.67.82,7.42.7,11.14.88.53.02,1.14.08,1.21.76.07.73-.53.79-1.07.85-.58.07-1.15.14-1.91.23Z"/>
  <path class="cls-1" d="M657.82,77.4c-.23-.9-1.34-1.27-.52-1.89.66-.49,1.14.09,1.49.68.87,1.48,2.55.9,3.8,1.44.7.3,2.07-.16,1.94,1-.12,1.08-1.44.74-2.14.57-3.41-.83-6.86-.93-10.33-.9-.46,0-1.09.04-1.16-.56-.09-.76.65-.81,1.11-.8,1.85.07,3.74-.6,5.81.45Z"/>
  <path class="cls-1" d="M709.59,87.75c-.25.42-.42.98-.8,1.3-.59.49-1.36.73-1.83,1.4-.15.21-.49.16-.73,0-.26-.18-.24-.41-.14-.69.08-.23.94-.41.09-.72-.4-.14-.79,0-.88.42-.15.68-.62,1.03-1.1,1.46-.57.51-.98.96-1.67.19-.5-.56-.95.14-1.43.17-.86.06-1.75.1-1.21-1.21.24-.59.03-1.14-.01-1.71-.04-.46.12-.85.58-1.01.51-.18.86,0,1.18.48.88,1.31,2.18,1.42,3.42.39.23-.19.54-.33.83-.4,1.03-.25,2.26.87,3.15-.5.08-.13.49.08.56.43Z"/>
  <path class="cls-1" d="M600.04,89.98c-1.05,0-2.1.04-3.15-.01-1.12-.06-3.23-2.28-3.19-3.31.01-.37.26-.58.58-.65.78-.17,1.58-.18,2.34.09.52.19.82.64.46,1.12-1.08,1.45.33,1.17.9,1.23,1.56.15,3.14-.4,4.72.04.35.1.73.14,1.07.27.36.13.69.36.61.81-.08.46-.48.53-.86.53-1.16.01-2.32,0-3.48,0v-.11Z"/>
  <path class="cls-1" d="M712.79,46.6c-1.25-.24-2.39-.46-3.53-.69-.41-.08-.83-.42-.49-.73.64-.6-.76-2.03.89-2.07.76-.02,1.19-.2,1.79-.82.81-.83,2.11-.05,3.02.36.93.41.14,1.1-.2,1.68-.23.39-.32.89-.38,1.36-.1.75-.54.97-1.09.93Z"/>
  <path class="cls-1" d="M526.03,11.08c2.88.38,5.75-.22,8.62-.06.6.03,1.46-.13,1.39.81-.06.74-.8.62-1.4.64-2.68.1-5.36.19-8.03.41-.93.08-1.78-.14-2.66-.29-.44-.07-.83-.29-.77-.83.06-.52.5-.66.94-.68.63-.03,1.27,0,1.9,0Z"/>
  <path class="cls-1" d="M633.41,77.02c-1.25-.56-2.65.18-4.1.32-.46.05-.96,0-1.41-.13-.63-.18-1.66-.19-1.6-.96.06-.74,1.08-.32,1.63-.52,1.75-.64,3.58-.25,5.33-.51,1.17-.17,2.24-.53,3.44-.21.42.11,1.05-.22,1.03.56-.02.64-.38,1.11-1.07,1.18-1,.1-2,.17-3.25.27Z"/>
  <path class="cls-1" d="M428.62,6.25c-1.1,0-2.21.03-3.31-.01-.47-.02-1.02-.23-1.01-.8.01-.62.62-.67,1.08-.68,1.26-.03,2.49-.35,3.77-.13,1.42.24,2.8-.15,4.2-.42.96-.19,2.63-.68,2.75.79.1,1.16-1.5.92-2.44,1-1.67.14-3.34.44-5.04.25Z"/>
  <path class="cls-1" d="M556.72,44.88c-4.05.88-8.12,1.16-12.22,1.09-.32,0-.64,0-.95-.04-.49-.06-1.01-.19-1-.79,0-.6.51-.78,1.01-.79,3.16-.05,6.33-.14,9.49-.06,1.22.03,2.5,0,3.68.59Z"/>
  <path class="cls-1" d="M598.81,34.56c-1.64,0-3.27.01-4.91,0-.59,0-1.27-.09-1.21-.9.05-.72.74-1.01,1.29-.87,3.22.78,6.46-.28,9.68.14.57.07,1.33.02,1.33.79,0,.9-.8.82-1.43.83-1.58.02-3.17,0-4.75,0h0Z"/>
  <path class="cls-1" d="M478.01,4.39c-2.44.44-5.02.28-7.6.29-.61,0-1.46.12-1.5-.75-.04-.89.84-.81,1.43-.85,3.19-.19,6.39-.28,9.58-.1.27.02.54.05.66.34.15.36-.05.6-.32.8-.65.51-1.39.4-2.25.27Z"/>
  <path class="cls-1" d="M570.98,44.32c-.58.93-1.44.66-2.16.8-3.07.6-6.18.61-9.29.51-.6-.02-1.46.06-1.4-.85.07-.87.9-.74,1.51-.7,2.46.19,4.87-.59,7.37-.13,1.26.23,2.53,1.17,3.96.36Z"/>
  <path class="cls-1" d="M589.03,36.72c1.48,0,2.96-.01,4.44,0,.54,0,1.16.07,1.11.81-.04.67-.64.8-1.18.8-3.01.02-6.02.03-9.03.02-.5,0-1-.15-.96-.79.04-.58.52-.8,1.02-.81,1.53-.03,3.07-.01,4.6-.01v-.03Z"/>
  <path class="cls-1" d="M622.5,76.35c-2.09,1.03-4.33-.57-6.44.31-.27.11-.63.04-.94-.02-.36-.07-.78-.17-.73-.66.03-.37.41-.58.69-.53,1.12.17,2.09-1.63,3.28-.24,1.56-1.56,3.36-.25,5.04-.42.64-.06,1.44-.24,1.56.59.15,1.01-.86.66-1.38.86-.33.12-.72.08-1.09.11Z"/>
  <path class="cls-1" d="M678.16,6.35c2.49.27,4.9.51,7.31.8.56.07,1.29.23,1.15,1-.16.9-.93.6-1.54.56-2.3-.17-4.61-.33-6.91-.52-.68-.06-1.72.19-1.67-.9.05-.94,1-.88,1.66-.95Z"/>
  <path class="cls-1" d="M759.86,73.71c.81-.02,1.55-.19,2.24.15.29.14.6.27.56.66-.03.39-.37.59-.66.54-2.11-.31-4.28-.27-6.33-.96-.32-.11-.62-.46-.4-.72.54-.65.42-1.82,1.54-2.02,1.17-.2,2.18.36,3.15.82.71.33-.09.89-.11,1.53Z"/>
  <path class="cls-1" d="M696.9,10.07c-.05,0-.11.01-.16,0-.72-.04-1.51.14-2.02-.59-.13-.19-.05-.49.16-.53.81-.17,1.7-.94,2.39-.45,1.13.8,2.35-.07,3.49.57,1.08.6,2.37.84,3.67.71.47-.05.95,0,1.41.07.45.07.81.32.78.83-.03.54-.47.69-.9.67-1.26-.04-2.49-.28-3.73-.55-1.68-.36-3.37-.61-5.06-.9,0,.06-.02.11-.02.17Z"/>
  <path class="cls-1" d="M701.42,21.49c-2.19-.47-4.5-.56-6.81-.7-.72-.04-1.64-.31-1.56-1.23.1-1.08,1.04-.68,1.75-.68,2.33.01,4.52.98,6.85,1.01.53,0,1.17.05,1.14.77-.04.76-.69.81-1.38.82Z"/>
  <path class="cls-1" d="M572.08,7.61c-1.59-.29-3.42-.18-5.25-.04-.59.04-1.45.14-1.46-.76-.01-.88.77-1.11,1.49-1.01,2.62.36,5.22.26,7.83-.08.5-.07,1-.04,1.13.56.12.53-.35.7-.71.92-.87.53-1.85.27-3.02.42Z"/>
  <path class="cls-1" d="M216.02,120.11c1.35.53,3.46-.45,4.02,1.76.22.87-1.67,1.91-3.09,1.82-1.2-.07-2.65-1.49-2.59-2.53.04-.76.62-1.13,1.65-1.05Z"/>
  <path class="cls-1" d="M555.74,2.76c-1.74-.6-3.52.27-5.3.01-.5-.07-1.21.02-1.2-.71.01-.63.68-.52,1.12-.6,2.61-.45,5.24-.61,7.88-.57.46,0,1.11-.08,1.22.48.13.64-.53.9-1.01,1.01-.87.2-1.77.25-2.72.37Z"/>
  <path class="cls-1" d="M631.52,28.37c-2.17.23-3.97-.27-5.78-.48-.48-.06-1.01-.19-.94-.82.08-.67.62-.76,1.19-.73,2.08.09,4.17.17,6.25.28.67.04,1.58,0,1.57.91-.01,1.01-.9.96-1.67.89-.31-.03-.62-.05-.62-.05Z"/>
  <path class="cls-1" d="M670.89,17.78c-1.73-.14-3.47-.28-5.2-.43-.68-.06-1.36-.32-1.37-1.06-.01-.82.81-.7,1.34-.74,2.23-.16,4.36.71,6.59.72.45,0,.99.26.98.85-.01.66-.6.63-1.07.66-.42.03-.84,0-1.27,0Z"/>
  <path class="cls-1" d="M585.17,27.14c-1.86-.36-3.7.29-5.53-.08-.51-.1-1.16.06-1.21-.66-.04-.65.56-.94,1.07-.94,1.93,0,3.84-.67,5.78-.14.57.16,1.45-.02,1.34.93-.09.76-.84.84-1.45.89Z"/>
  <path class="cls-1" d="M496.84,4.02c-.45,0-1.34.02-2.23,0-.43-.01-.9-.13-.87-.69.03-.5.44-.64.89-.73,2.46-.48,4.96.08,7.42-.34.39-.07.74.15.8.59.08.61-.35.83-.86.9-1.56.22-3.12.44-5.14.27Z"/>
  <path class="cls-1" d="M368.38,8.11c-.8-.41-1.76-.17-2.74.04-.47.1-.94-.09-1.34-.36-.33-.21-.57-.51-.43-.92.14-.42.53-.58.9-.45,2.01.74,3.9-.35,5.85-.36.7,0,1.71-.35,1.74.72.03,1-.93.96-1.68.85-.79-.12-1.37.55-2.3.47Z"/>
  <path class="cls-1" d="M679.74,80.59c-1.28-.06-2.45,0-3.57-.41-.37-.14-.69-.33-.68-.77,0-.43.32-.68.72-.71,2.15-.17,4.3.49,6.46.07.25-.05.47.22.49.52.04.48-.24.79-.61,1.03-.93.62-1.95.25-2.81.26Z"/>
  <path class="cls-1" d="M596.94,6.25c-.04.86-.59,1.13-1.38.82-.7-.28-1.18-.53-1.55.48-.31.85-1.02.72-1.35-.04-.31-.72-.58-1.33-1.46-1.42-.27-.03-.5-.26-.42-.56.04-.16.27-.36.42-.37,1.41-.13,2.81-.3,4.22-.31.76,0,1.42.4,1.51,1.4Z"/>
  <path class="cls-1" d="M669.75,52.3c1.33.21,2.84.44,4.34.69.45.08.83.32.8.83-.04.64-.56.75-1.04.7-1.68-.15-3.36-.32-5.03-.55-.55-.08-1.3-.28-1.24-.99.08-.92.92-.62,1.51-.67.16-.01.32,0,.66,0Z"/>
  <path class="cls-1" d="M598.31,6.35c-.2-1.34.38-1.77,1.53-1.47,1.06.28,2.11.62,3.15.97.47.16.87.45.74,1.04-.11.5-.53.62-.96.65-1.29.08-2.55-.33-3.89.03-.81.22-.47-.81-.57-1.22Z"/>
  <path class="cls-1" d="M625.54,1.2c1.24.04,2.27.34,3.33.2.46-.06.81.24.89.72.08.45-.27.64-.62.79-.67.3-1.35.68-2.1.3-.72-.36-1.4-.3-2.13-.04-.84.3-1.75.16-1.95-.75-.25-1.16.93-.83,1.53-1.05.39-.14.82-.14,1.05-.18Z"/>
  <path class="cls-1" d="M390.86,7.26c-1.46-.12-2.93-.23-4.39-.36-.42-.04-.92-.1-.92-.66,0-.51.47-.68.89-.75.35-.06.76-.09,1.08.04,1.5.57,2.98.48,4.49.04.75-.22,1.67-.27,1.79.68.12.94-.88.84-1.52.94-.46.07-.94.01-1.42.01,0,.02,0,.03,0,.05Z"/>
  <path class="cls-1" d="M523.46,27.2c-1.32.13-2.24-.63-3.31-.86-.31-.07-.53-.36-.49-.72.03-.37.33-.52.63-.62.2-.06.45-.2.61-.13,1.56.67,3.06,1.21,4.76.26.42-.23.86.51.91,1.07.06.76-.5.62-.98.6-.79-.04-1.43.8-2.13.4Z"/>
  <path class="cls-1" d="M624,84.71c-1.32-.06-2.52-.12-3.72-.16-.46-.01-.9-.07-.93-.61-.04-.63.43-.79.95-.77,2.04.08,4.08.17,6.12.27.46.02,1.08.01,1.08.65,0,.67-.66.51-1.09.59-.83.15-1.67.17-2.39.03Z"/>
  <path class="cls-1" d="M689.24,83.21c-1.73-.16-3.48-.09-5.22-.15-.59-.02-1.3-.1-1.22-.89.08-.81.83-.66,1.39-.61,1.94.18,3.88.4,5.82.61.5.05,1.27-.05,1.25.64-.02.85-.77.4-1.24.41-.26,0-.53,0-.79,0Z"/>
  <path class="cls-1" d="M353.84,6.52c.98.2,2.16-.27,2.89.81.17.25.44.52.28.85-.13.28-.45.16-.7.2-1.53.21-3.03-.11-4.54-.19-.54-.03-1.1-.22-1.14-.86-.03-.65.59-.61,1.02-.73.72-.2,1.45-.2,2.18-.07Z"/>
  <path class="cls-1" d="M576.41,85.34c1.43.16,2.83.3,4.23.38,1.59.09,1.8,1.72,2.71,2.58.17.17-.01.51-.3.61-.34.12-.7,0-.8-.3-.37-1.12-1.29-1.17-2.18-1.08-1.77.18-2.31-1.64-3.65-2.19Z"/>
  <path class="cls-1" d="M347.48,8.42c-.99,0-1.99.05-2.98-.02-.57-.04-1.27-.2-1.18-.97.09-.72.76-.83,1.36-.75.89.12,1.76.14,2.66.01.86-.12,2.12-.3,2.13.89.01,1.24-1.23.69-1.99.83Z"/>
  <path class="cls-1" d="M643.01,85.68c-.83-.08-1.67-.11-2.49-.25-.54-.1-1.01-.45-.89-1.09.13-.65.67-.49,1.15-.45,1.2.08,2.4.12,3.61.2.64.04,1.4.08,1.35.95-.06.95-.85.7-1.46.66-.42-.03-.84-.05-1.26-.07,0,.02,0,.04,0,.07Z"/>
  <path class="cls-1" d="M679.35,18.38c-1.98.57-2.26-1.09-2.97-2.16-.12-.19-.18-.4.03-.55.29-.2.63-.17.87.06.46.46.85.72,1.42.09.35-.39.76-.22,1.02.24.13.23.23.47.39.67.33.42,1.29.47,1.02,1.2-.3.81-1.2.35-1.78.46Z"/>
  <path class="cls-1" d="M551.15,95.1c1.77-.57,3.4-.66,5-.89.74-.11,1.45.21,1.52,1.04.07.98-.79.8-1.38.82-1.68.06-3.39.23-5.14-.97Z"/>
  <path class="cls-1" d="M710.16,31.67c1.06.13,2.27.23,3.46.43.61.11,1.11.53.93,1.23-.16.61-.74.47-1.2.38-1.18-.25-2.44-.02-3.58-.56-.42-.2-.97-.38-.81-.99.13-.49.63-.48,1.2-.49Z"/>
  <path class="cls-1" d="M585.77,5.33c.11,0,.21,0,.32,0,.7.07,1.72-.18,1.8.8.09,1.11-1.04.76-1.67.92-.66.17-1.35.24-2.02.33-.64.09-1.21-.07-1.34-.77-.13-.74.46-1.03,1.04-1.15.61-.13,1.25-.14,1.87-.2,0,.02,0,.04,0,.05Z"/>
  <path class="cls-1" d="M652.73,15.75c-.38,0-1.01.05-1.63-.02-.47-.05-.76-.38-.69-.89.06-.45.45-.68.8-.54,1.57.61,3.24.01,4.81.49.56.17,1.28.15,1.04,1-.18.64-.79.68-1.31.42-.89-.45-1.84-.36-3.03-.47Z"/>
  <path class="cls-1" d="M667.57,78.6c2.48-.18,4.49-.33,6.5-.46.4-.03.74.17.78.62.05.57-.33,1.05-.78,1.02-2.04-.11-4.18.21-6.5-1.19Z"/>
  <path class="cls-1" d="M775.56,57.02c1.64-.01,3.09,1.11,4.79,1.16.39.01.6.42.46.85-.14.41-.51.58-.89.48-1.85-.49-3.69-1.01-5.53-1.54-.26-.07-.54-.26-.36-.56.34-.56.95-.25,1.53-.38Z"/>
  <path class="cls-1" d="M475.98,38.31c1.08.03,2.28.9,3.48-.11.28-.23.72.05.86.45.16.45.06.88-.38,1.07-.82.37-1.68.61-2.6.36-.56-.15-1.12-.27-1.68-.42-.5-.13-1.38.15-1.26-.74.1-.71.9-.54,1.57-.62Z"/>
</svg>